HIERARCHY
ROOT pelvis
{
  OFFSET 0 100 0
  CHANNELS 6 Xposition Yposition Zposition Zrotation Xrotation Yrotation
  JOINT pelvis_right_femur
  {
    OFFSET -10.78128 -3.44521 -0.5502486
    CHANNELS 3 Zrotation Xrotation Yrotation
    JOINT right_femur_tibia
    {
      OFFSET -0.8047443 -44.0398 -0.1307829
      CHANNELS 3 Zrotation Xrotation Yrotation
      JOINT right_tibia_foot
      {
        OFFSET 3.006224 -47.83518 -5
        CHANNELS 3 Zrotation Xrotation Yrotation
        End Site
        {
          OFFSET 0 -5 15
        }
      }
    }
  }
  JOINT pelvis_left_femur
  {
    OFFSET 10.78128 -3.44521 -0.5502486
    CHANNELS 3 Zrotation Xrotation Yrotation
    JOINT left_femur_tibia
    {
      OFFSET 0.8047443 -44.0398 -0.1307829
      CHANNELS 3 Zrotation Xrotation Yrotation
      JOINT left_tibia_foot
      {
        OFFSET -4.370144 -48.10324 -4.275266
        CHANNELS 3 Zrotation Xrotation Yrotation
        End Site
        {
          OFFSET 0 -5 15
        }
      }
    }
  }
  JOINT pelvis_spine1
  {
    OFFSET 0 6.468898 -3.129235
    CHANNELS 3 Zrotation Xrotation Yrotation
    JOINT spine1
    {
      OFFSET 0 23.15396 4.99043
      CHANNELS 3 Zrotation Xrotation Yrotation
      JOINT spine2
      {
        OFFSET 0 20.79997 -5.064912
        CHANNELS 3 Zrotation Xrotation Yrotation
        JOINT neck
        {
          OFFSET 0 14.38658 9.616178
          CHANNELS 3 Zrotation Xrotation Yrotation
          End Site
          {
            OFFSET 0 20 0
          }
        }
      }
      JOINT right_manubrium
      {
        OFFSET -5.722621 16.35077 3.967754
        CHANNELS 3 Zrotation Xrotation Yrotation
        JOINT right_clavicle
        {
          OFFSET -13.16364 1.694482 -4.693211
          CHANNELS 3 Zrotation Xrotation Yrotation
          JOINT right_humerus
          {
            OFFSET -28.5034 -0.3100689 -2.792744
            CHANNELS 3 Zrotation Xrotation Yrotation
            JOINT right_radius
            {
              OFFSET -25.15693 0.02248979 -1.271978
              CHANNELS 3 Zrotation Xrotation Yrotation
              End Site
              {
                OFFSET -15 0 0
              }
            }
          }
        }
      }
      JOINT left_manubrium
      {
        OFFSET 5.722621 16.35077 3.967754
        CHANNELS 3 Zrotation Xrotation Yrotation
        JOINT left_clavicle
        {
          OFFSET 13.16364 1.694482 -4.693211
          CHANNELS 3 Zrotation Xrotation Yrotation
          JOINT left_humerus
          {
            OFFSET 29.39168 -1.063119 -2.237045
            CHANNELS 3 Zrotation Xrotation Yrotation
            JOINT left_radius
            {
              OFFSET 24.59957 -0.9528479 0.9047498
              CHANNELS 3 Zrotation Xrotation Yrotation
              End Site
              {
                OFFSET 15 -0 -0
              }
            }
          }
        }
      }
    }
  }
}
MOTION
Frames: 19
Frame Time: 0.0416666666667
-396.3441 105.3008 2820.842 -3.096429 -9.516376 -27.96803 -1.468915 9.733484 -1.158812 -0 50.17479 -0 -16.75019 11.44721 3.432981 -5.673762 -3.848065 -15.05545 -0 15.76751 -0 -1.239095 -9.975729 21.02473 -1.410878 -1.115178 7.054903 -0.7486371 10.9282 -2.699046 0.5175413 22.55239 6.250889 4.887451 -16.72369 4.850785 2.149103 -22.69312 11.90628 80.16267 27.22909 -3.396063 -0 0 23.14224 -23.08663 8.667065 13.18562 5.049309 -19.71821 -4.518178 -95.90188 12.20977 29.1855 -0 0 1.166757 9.109525 13.40865 0.007871092
-398.1941 106.4349 2825.83 -3.472486 -9.380719 -27.25873 -0.8131346 3.817342 -1.481299 -0 51.67458 -0 -16.88895 11.95211 3.031227 -5.350428 -0.4086184 -14.78616 -0 14.72663 -0 -0.7751154 -11.11307 20.37391 -1.40116 -0.9245915 6.674725 -0.8362498 10.95012 -2.818182 0.632948 22.68489 6.359081 5.116928 -16.78756 4.962835 2.185433 -22.05617 11.76881 80.78028 27.69159 -4.181365 -0 0 22.16675 -23.04713 8.655519 12.62531 5.335032 -19.93257 -4.558946 -95.54632 12.0238 28.02719 -0 0 1.271134 9.768733 13.90522 -0.9033665
-399.9114 107.281 2830.431 -3.819696 -9.001997 -26.59592 -0.09211038 -2.680543 -1.906241 -0 50.43438 -0 -16.76187 11.43801 2.498741 -4.892924 2.982955 -14.31059 -0 13.19038 -0 -0.3446593 -12.45108 19.48564 -1.377 -0.784233 6.305995 -0.9239184 11.04984 -2.98398 0.7257362 22.77189 6.453659 5.363715 -16.84983 5.021914 2.199628 -21.53223 11.64694 81.50593 28.07491 -5.111197 -0 0 21.26107 -23.06351 8.706772 12.03423 5.638161 -20.26359 -4.702164 -95.1487 11.72608 26.88727 -0 0 1.179872 10.52115 14.35314 -1.933386
-401.5355 107.6926 2834.722 -4.028056 -8.388 -26.05462 0.5715587 -9.28664 -2.450024 -0 46.15025 -0 -16.3352 10.1805 1.934707 -4.435212 6.153659 -13.71827 -0 11.45297 -0 -0.001375858 -14.06773 18.40019 -1.331967 -0.6957347 5.965174 -1.009291 11.24105 -3.201838 0.7880312 22.8049 6.529742 5.623125 -16.91547 5.012461 2.176869 -21.13032 11.54512 82.34863 28.32191 -6.212753 -0 0 20.4293 -23.13959 8.802135 11.42031 5.951769 -20.72748 -4.965852 -94.69538 11.33148 25.76753 -0 0 0.7985143 11.3377 14.69952 -3.038422
-403.1254 107.5828 2838.821 -3.983654 -7.548433 -25.67835 1.081629 -15.52092 -3.138535 -0 39.07491 -0 -15.5449 8.565462 1.427243 -4.114684 8.947874 -13.08069 -0 9.906042 -0 0.2140901 -15.98401 17.17149 -1.257525 -0.6607931 5.670788 -1.082913 11.53487 -3.487242 0.8087625 22.76785 6.586503 5.893038 -16.99894 4.919678 2.106839 -20.85091 11.46647 83.31999 28.38597 -7.537539 -0 0 19.66703 -23.2514 8.915349 10.7677 6.272695 -21.35303 -5.360204 -94.17002 10.8509 24.6687 -0 0 0.01919761 12.19033 14.88531 -4.173515
-404.7472 106.951 2842.874 -3.603971 -6.493541 -25.4665 1.3903 -20.9884 -3.960745 -0 30.08848 -0 -14.33832 6.998792 1.028146 -4.041244 11.26805 -12.46341 -0 8.935585 -0 0.2890575 -18.12173 15.8873 -1.150004 -0.6801404 5.442113 -1.13197 11.92741 -3.855742 0.7791592 22.64152 6.626598 6.171034 -17.12125 4.738271 1.987991 -20.68939 11.40925 84.41295 28.25436 -9.117179 -0 0 18.98113 -23.35047 9.011644 10.04675 6.601146 -22.15741 -5.869987 -93.5666 10.2954 23.59969 0 0 -1.226996 13.04238 14.8572 -5.288983
-406.4622 105.8883 2847.025 -2.880342 -5.239296 -25.37315 1.531056 -25.4355 -4.808568 -0 20.56261 -0 -12.75236 5.811454 0.7406638 -4.255673 13.09869 -11.93532 -0 8.81002 -0 0.2538879 -20.27225 14.68014 -1.019746 -0.7478023 5.29334 -1.147944 12.38297 -4.304163 0.6998641 22.41695 6.656774 6.451612 -17.29916 4.483595 1.831931 -20.63701 11.36371 85.57612 27.98057 -10.89884 -0 0 18.40548 -23.37874 9.049135 9.238387 6.937992 -23.10985 -6.437457 -92.90704 9.686742 22.58911 0 0 -2.89137 13.83825 14.59177 -6.326046
-408.3235 104.5604 2851.394 -1.915532 -3.82508 -25.31846 1.643667 -28.74802 -5.455543 -0 12.05549 -0 -10.98146 5.187951 0.5257445 -4.692872 14.50721 -11.55603 -0 9.642497 -0 0.1576263 -22.09374 13.68781 -0.8953433 -0.8460775 5.224548 -1.133536 12.82631 -4.796845 0.5845828 22.10936 6.69041 6.725971 -17.5367 4.198724 1.663891 -20.67952 11.31209 86.71045 27.70241 -12.71488 -0 0 17.9969 -23.29011 8.986752 8.358532 7.28427 -24.11139 -6.959693 -92.25039 9.068232 21.68882 0 0 -4.758848 14.50822 14.12085 -7.222657
-410.3762 103.1754 2856.061 -0.933489 -2.335057 -25.21016 1.956397 -30.89959 -5.616971 -0 5.941478 -0 -9.36416 5.117708 0.3238409 -5.173577 15.60622 -11.33908 -0 11.48122 -0 -0.02094029 -23.14977 12.94824 -0.8146607 -0.95084 5.217979 -1.10187 13.16359 -5.275423 0.4558085 21.75703 6.747056 6.98425 -17.82795 3.946431 1.515286 -20.79778 11.235 87.70682 27.60487 -14.34163 -0 0 17.80712 -23.0665 8.800847 7.45976 7.643414 -25.024 -7.316169 -91.67751 8.501694 20.95904 0 0 -6.505558 14.99535 13.53219 -7.932995
-412.6558 101.9541 2861.06 -0.2306681 -0.8989414 -24.97519 2.706975 -31.88408 -5.066649 -0 3.082269 -0 -8.247415 5.361916 0.07599614 -5.447034 16.4521 -11.22054 -0 14.48344 -0 -0.4572958 -22.99298 12.30709 -0.8035058 -1.046922 5.247313 -1.066278 13.3304 -5.691519 0.3343524 21.4012 6.843497 7.21741 -18.16565 3.782954 1.409756 -20.97252 11.12271 88.50222 27.81918 -15.62335 -0 0 17.84871 -22.71893 8.502354 6.603674 8.019048 -25.74252 -7.423262 -91.25489 8.044925 20.44238 0 0 -7.85858 15.2863 12.93364 -8.444856
-415.174 101.1054 2866.38 -0.05784945 0.340251 -24.60441 4.014936 -31.66625 -3.740411 -0 3.600879 -0 -7.788934 5.451947 -0.2718989 -5.291434 16.89573 -11.0784 -0 19.01458 -0 -1.40818 -21.2938 11.4933 -0.8572101 -1.136864 5.294132 -1.029618 13.33008 -6.032271 0.2301299 21.06622 6.9815 7.417683 -18.54224 3.729294 1.350996 -21.18849 10.98348 89.10454 28.32686 -16.5528 -0 0 18.08149 -22.27809 8.13758 5.830022 8.403682 -26.24958 -7.281602 -91.00865 7.725892 20.1539 0 0 -8.725709 15.41567 12.40537 -8.774269
-417.8935 100.8012 2871.96 -0.4737051 1.262529 -24.19358 5.737872 -30.16553 -1.806078 -0 6.766695 -0 -7.861828 4.775977 -0.7636079 -4.646794 16.49242 -10.80991 -0 25.4995 -0 -2.94807 -18.01859 10.38755 -0.9398501 -1.229926 5.357842 -0.9833746 13.22826 -6.313157 0.1392887 20.75903 7.144591 7.579808 -18.93956 3.760397 1.320166 -21.43333 10.84219 89.56548 28.95168 -17.23646 -0 0 18.42825 -21.78656 7.765994 5.151969 8.765719 -26.60557 -6.981633 -90.93144 7.533886 20.10189 0 0 -9.178763 15.43698 11.97523 -8.938381
-420.7135 101.1299 2877.684 -1.261188 1.760668 -23.93275 7.395681 -27.28674 0.2883828 -0 11.04341 -0 -8.192197 2.83961 -1.379987 -3.71046 14.62002 -10.40227 -0 34.01043 -0 -4.747886 -13.63386 9.22099 -0.9986268 -1.322892 5.455226 -0.9142968 13.11564 -6.552593 0.04575693 20.48096 7.306736 7.704036 -19.31906 3.81423 1.282559 -21.69528 10.73186 89.93477 29.43496 -17.79916 -0 0 18.80532 -21.29252 7.430719 4.569912 9.046462 -26.8994 -6.671035 -91.00779 7.425641 20.31999 0 0 -9.341998 15.38639 11.62074 -8.92958
-423.4942 102.0438 2883.385 -2.003968 1.687203 -24.01269 8.333429 -23.028 1.899576 -0 14.50497 -0 -8.62476 -0.3063653 -1.965404 -2.882371 10.8399 -9.922753 -0 43.80777 -0 -6.153092 -9.154763 8.433515 -0.9827535 -1.395517 5.615054 -0.8093274 13.07509 -6.759684 -0.075546 20.23286 7.443641 7.797512 -19.62373 3.810513 1.199989 -21.96933 10.68537 90.23932 29.53069 -18.32563 -0 0 19.1526 -20.83551 7.145806 4.076952 9.172002 -27.21358 -6.510821 -91.22914 7.334621 20.87887 0 0 -9.315217 15.26893 11.28353 -8.712404
-426.1211 103.343 2888.89 -2.342641 0.873307 -24.48745 8.174245 -17.6326 2.545118 -0 15.7273 -0 -9.195072 -3.800695 -2.264179 -2.486486 5.279358 -9.424208 -0 53.17647 -0 -6.525906 -5.736037 8.331283 -0.8635382 -1.427183 5.869007 -0.6568933 13.16621 -6.939341 -0.2510143 20.01349 7.537266 7.868442 -19.78743 3.67552 1.050977 -22.26992 10.73124 90.48814 29.08888 -18.853 -0 0 19.45649 -20.42532 6.913969 3.657082 9.074181 -27.60915 -6.632681 -91.59046 7.185932 21.86372 0 0 -9.166403 15.07357 10.89878 -8.246877
-428.5561 104.7309 2894.087 -2.238518 -0.6788041 -25.20617 7.179515 -11.64392 2.282745 -0 14.60483 -0 -9.907173 -6.399412 -2.096645 -2.431838 -1.333201 -8.825808 -0 59.82447 -0 -5.62374 -3.939335 8.924257 -0.6520514 -1.418047 6.236262 -0.4496528 13.41443 -7.092156 -0.4936774 19.82644 7.572135 7.912231 -19.73906 3.37196 0.857215 -22.63171 10.89291 90.66396 28.12148 -19.35241 -0 0 19.75616 -20.0365 6.765557 3.306234 8.706734 -28.09768 -7.098528 -92.08075 6.926098 23.32871 0 0 -8.930885 14.79735 10.44669 -7.519893
-430.8278 105.9074 2898.97 -1.968287 -2.60138 -25.91945 6.060539 -5.756456 1.63098 -0 12.20292 -0 -10.56596 -7.486692 -1.522443 -2.190755 -8.046963 -7.890857 -0 61.78274 -0 -3.778839 -3.437394 10.01938 -0.4007002 -1.39547 6.707644 -0.1908178 13.79671 -7.198228 -0.7900671 19.69453 7.530977 7.900239 -19.40789 2.920934 0.6942548 -23.09105 11.18658 90.68929 26.81652 -19.68133 -0 0 20.12883 -19.6405 6.781742 3.083132 8.052486 -28.60121 -7.87187 -92.68149 6.558041 25.25896 0 0 -8.582331 14.44815 9.993402 -6.55715
-432.9823 106.6458 2903.63 -1.855612 -4.27042 -26.47593 5.439089 -0.5409168 1.097807 -0 9.779759 -0 -10.89552 -7.631249 -0.8402831 -1.207077 -14.08721 -6.397455 -0 58.29104 -0 -1.718251 -3.492189 11.34177 -0.1821187 -1.408715 7.243817 0.1009538 14.23874 -7.210366 -1.102061 19.65394 7.398223 7.785755 -18.75522 2.399093 0.6629185 -23.67476 11.61237 90.42223 25.47235 -19.58763 -0 0 20.6738 -19.25414 7.067411 3.133207 7.13924 -28.95678 -8.814167 -93.36887 6.150985 27.55892 0 0 -8.041113 14.02438 9.664104 -5.414846
-435.0563 106.8282 2908.205 -2.050024 -5.165177 -26.889 5.510479 3.725817 0.8518275 -0 8.06314 -0 -10.74563 -8.062062 -0.3787697 0.6487514 -18.97366 -4.373872 -0 50.10176 -0 -0.1322543 -3.552784 12.61529 -0.05824276 -1.518638 7.788979 0.3925904 14.63321 -7.078977 -1.381916 19.71974 7.170577 7.527442 -17.82959 1.912924 0.8337764 -24.40482 12.13895 89.72013 24.38718 -18.81957 -0 0 21.49671 -18.95649 7.681743 3.630971 6.069136 -28.99154 -9.708538 -94.10528 5.816359 30.05122 0 0 -7.267742 13.50492 9.554382 -4.174299
